# Made in Blockbench 5.0.4
mtllib toilet_paper.mtl

o cuboid
v 0.1875 0 0.1875
v 0.1875 0 -0.1875
v 0.1875 -0.5 0.1875
v 0.1875 -0.5 -0.1875
v -0.1875 0 0.1875
v -0.1875 0 -0.1875
v -0.1875 -0.5 0.1875
v -0.1875 -0.5 -0.1875
vt 0.625 0.71875
vt 0.4375 0.71875
vt 0.4375 0.46875
vt 0.625 0.46875
vt 0.625 0.46875
vt 0.625 0.71875
vt 0.4375 0.71875
vt 0.4375 0.46875
vt 0 0.25
vt 0.1875 0.25
vt 0.1875 0.4375
vt 0 0.4375
vt 0.1875 0.25
vt 0.1875 0.4375
vt 0 0.4375
vt 0 0.25
vt 0.625 0.46875
vt 0.625 0.71875
vt 0.4375 0.71875
vt 0.4375 0.46875
vt 0.625 0.71875
vt 0.4375 0.71875
vt 0.4375 0.46875
vt 0.625 0.46875
vn 1 0 0
vn -1 0 0
vn 0 1 0
vn 0 -1 0
vn 0 0 1
vn 0 0 -1
usemtl m_17632134-c0bd-d058-6cd6-97eae81c4ab6
f 2/1/1 1/2/1 3/3/1 4/4/1
f 7/5/2 5/6/2 6/7/2 8/8/2
f 5/9/3 1/10/3 2/11/3 6/12/3
f 4/13/4 3/14/4 7/15/4 8/16/4
f 3/17/5 1/18/5 5/19/5 7/20/5
f 6/21/6 2/22/6 4/23/6 8/24/6
o cuboid
v 0.1873676625929488 0 0.17882192826529256
v 0.3001323374070512 0 -0.17882192826529256
v 0.1873676625929488 -0.5 0.17882192826529256
v 0.3001323374070512 -0.5 -0.17882192826529256
v 0.1873676625929488 0 0.17882192826529256
v 0.3001323374070512 0 -0.17882192826529256
v 0.1873676625929488 -0.5 0.17882192826529256
v 0.3001323374070512 -0.5 -0.17882192826529256
vt 0.1875 1
vt 0 1
vt 0 0.75
vt 0.1875 0.75
vt 0.1875 0.75
vt 0.1875 1
vt 0 1
vt 0 0.75
vt 0.59375 0.25
vt 0.59375 0.4375
vt 0.5625 0.25
vt 0.5625 0.4375
vt 0.65625 0.4375
vt 0.625 0.4375
vt 0.65625 0.25
vt 0.625 0.25
vt 0.46875 0.4375
vt 0.4375 0.4375
vt 0.46875 0.1875
vt 0.4375 0.1875
vt 0.5 0.4375
vt 0.5 0.1875
vt 0.53125 0.4375
vt 0.53125 0.1875
vn 0.9537169507482269 0 0.30070579950427306
vn -0.9537169507482269 0 -0.30070579950427306
vn 0 0 0
vn 0 0 0
vn 0 0 0
vn 0 0 0
usemtl m_17632134-c0bd-d058-6cd6-97eae81c4ab6
f 10/25/7 9/26/7 11/27/7 12/28/7
f 15/29/8 13/30/8 14/31/8 16/32/8
f 9/33/9 10/34/9 13/35/9 14/36/9
f 11/37/10 15/38/10 12/39/10 16/40/10
f 9/41/11 13/42/11 11/43/11 15/44/11
f 10/45/12 12/46/12 14/47/12 16/48/12